<svg xmlns="http://www.w3.org/2000/svg" viewBox="0 0 500 500"><g id="freepik--background-simple--inject-105"><path d="M79.58,179c-9.84,6.18-17.71,15.84-22.21,29.82-14.48,45,9.17,98.77,42,129.67,30.44,28.63,71.23,44.73,112.13,50.84a247.26,247.26,0,0,0,76.8-.34A157.45,157.45,0,0,0,338,372c84-46,104.64-164.08,66.25-246.15A135.66,135.66,0,0,0,395,109.09C384.2,92.49,368.74,78.37,350,71.93c-19.06-6.54-41-4-57.46,8C275.63,92.19,269,114.19,263,133.19c-4.38,13.95-8.94,28.16-17.59,39.94-26.85,36.52-64.93,13.82-98.39,2.65C123.91,168.06,98.22,167.25,79.58,179Z" style="fill:#FFC100"></path><path d="M79.58,179c-9.84,6.18-17.71,15.84-22.21,29.82-14.48,45,9.17,98.77,42,129.67,30.44,28.63,71.23,44.73,112.13,50.84a247.26,247.26,0,0,0,76.8-.34A157.45,157.45,0,0,0,338,372c84-46,104.64-164.08,66.25-246.15A135.66,135.66,0,0,0,395,109.09C384.2,92.49,368.74,78.37,350,71.93c-19.06-6.54-41-4-57.46,8C275.63,92.19,269,114.19,263,133.19c-4.38,13.95-8.94,28.16-17.59,39.94-26.85,36.52-64.93,13.82-98.39,2.65C123.91,168.06,98.22,167.25,79.58,179Z" style="fill:#fff;opacity:0.9"></path></g><g id="freepik--Shadow--inject-105"><ellipse id="freepik--path--inject-105" cx="250" cy="416.24" rx="193.89" ry="11.32" style="fill:#f5f5f5"></ellipse></g><g id="freepik--Ux--inject-105"><path d="M274.06,94.25V410.37a4.62,4.62,0,0,1-4.69,4.62H110.25a4.14,4.14,0,0,1-4.19-4.24V93.87A3.73,3.73,0,0,1,109.65,90h37.78a2.94,2.94,0,0,1,2.69,1.88l1.73,4.26A2.94,2.94,0,0,0,154.54,98h71.13a2.91,2.91,0,0,0,2.69-1.83l1.73-4.28A3,3,0,0,1,232.78,90H270A4.22,4.22,0,0,1,274.06,94.25Z" style="fill:#FFC100"></path><path d="M274.06,94.25V410.37a4.62,4.62,0,0,1-4.69,4.62H110.25a4.14,4.14,0,0,1-4.19-4.24V93.87A3.73,3.73,0,0,1,109.65,90h37.78a2.94,2.94,0,0,1,2.69,1.88l1.73,4.26A2.94,2.94,0,0,0,154.54,98h71.13a2.91,2.91,0,0,0,2.69-1.83l1.73-4.28A3,3,0,0,1,232.78,90H270A4.22,4.22,0,0,1,274.06,94.25Z" style="fill:#fff;opacity:0.6000000000000001;isolation:isolate"></path><rect x="114.54" y="329.95" width="41.41" height="41.41" rx="3.38" style="fill:#fff"></rect><rect x="123.3" y="338.71" width="23.87" height="23.87" style="fill:#FFC100;opacity:0.5"></rect><path d="M123.3,338.71v23.87h23.88V338.71Zm11.17,11.94L124.4,360.72V340.58Zm-9.3-10.84h20.14l-10.07,10.06Zm10.07,11.61,10.07,10.07H125.17Zm.77-.77,10.07-10.07v20.14Z" style="fill:#fff;opacity:0.30000000000000004;isolation:isolate"></path><rect x="114.17" y="380" width="42.14" height="4.75" style="fill:#FFC100;opacity:0.75"></rect><path d="M115.9,381.26h-1.2v-.43h2.89v.43h-1.2v3.06h-.49Z" style="fill:#fff"></path><rect x="168.63" y="329.53" width="41.41" height="41.41" rx="3.38" style="fill:#fff"></rect><rect x="177.39" y="338.3" width="23.87" height="23.87" style="fill:#FFC100;opacity:0.5"></rect><path d="M177.39,338.3v23.87h23.88V338.3Zm11.17,11.94L178.49,360.3V340.17Zm-9.3-10.84H199.4l-10.07,10.06ZM189.33,351l10.07,10.07H179.26Zm.77-.77,10.07-10.07V360.3Z" style="fill:#fff;opacity:0.30000000000000004;isolation:isolate"></path><rect x="168.26" y="379.59" width="42.14" height="4.75" style="fill:#FFC100;opacity:0.75"></rect><path d="M170,380.85h-1.2v-.43h2.89v.43h-1.2v3H170Z" style="fill:#fff"></path><rect x="222.72" y="329.12" width="41.41" height="41.41" rx="3.38" style="fill:#fff"></rect><rect x="231.48" y="337.89" width="23.87" height="23.87" style="fill:#FFC100;opacity:0.5"></rect><path d="M231.48,337.89v23.87h23.87V337.89Zm11.16,11.93-10.06,10.07V339.76ZM233.35,339h20.14l-10.07,10.07Zm10.07,11.62,10.07,10.07H233.35Zm.77-.78,10.07-10.06v20.13Z" style="fill:#fff;opacity:0.30000000000000004;isolation:isolate"></path><rect x="222.35" y="379.18" width="42.14" height="4.75" style="fill:#FFC100;opacity:0.75"></rect><path d="M224.08,380.44h-1.2V380h2.89v.44h-1.2v3.05h-.49Z" style="fill:#fff"></path><rect x="114.17" y="119.48" width="151.78" height="72.98" rx="1.94" style="fill:#fff"></rect><circle cx="121.56" cy="154.09" r="3.36" style="fill:#FFC100;opacity:0.75"></circle><polygon points="119.9 154.09 122.5 155.85 122.5 152.32 119.9 154.09" style="fill:#fff"></polygon><circle cx="258.56" cy="154.09" r="3.36" style="fill:#FFC100;opacity:0.75"></circle><polygon points="260.22 154.09 257.62 152.32 257.62 155.85 260.22 154.09" style="fill:#fff"></polygon><rect x="139.36" y="137.14" width="84.69" height="8.44" style="fill:#FFC100;opacity:0.75"></rect><rect x="139.36" y="148.1" width="84.69" height="8.44" style="fill:#FFC100;opacity:0.75"></rect><rect x="139.36" y="159.9" width="69.36" height="8.44" style="fill:#FFC100;opacity:0.75"></rect><path d="M142.44,139.38h-2.13v-.77h5.14v.77h-2.13v5.44h-.88Z" style="fill:#fff"></path><path d="M176.25,188.4a1.52,1.52,0,1,1-1.52-1.52A1.52,1.52,0,0,1,176.25,188.4Z" style="fill:#FFC100;opacity:0.75"></path><path d="M183.91,188.4a1.52,1.52,0,1,1-1.51-1.52A1.52,1.52,0,0,1,183.91,188.4Z" style="fill:#FFC100;opacity:0.75"></path><path d="M191.58,188.4a1.52,1.52,0,1,1-1.52-1.52A1.52,1.52,0,0,1,191.58,188.4Z" style="fill:#FFC100;opacity:0.75"></path><path d="M199.24,188.4a1.52,1.52,0,1,1-1.51-1.52A1.52,1.52,0,0,1,199.24,188.4Z" style="fill:#FFC100;opacity:0.75"></path><path d="M206.91,188.4a1.52,1.52,0,1,1-1.52-1.52A1.52,1.52,0,0,1,206.91,188.4Z" style="fill:#FFC100;opacity:0.75"></path><rect x="114.17" y="202.77" width="151.78" height="11.86" style="fill:#fff"></rect><rect x="253.82" y="202.64" width="12.13" height="12.13" style="fill:#FFC100;opacity:0.75"></rect><rect x="114.17" y="223.8" width="139.78" height="46.06" rx="2.6" style="fill:#fff"></rect><rect x="120.4" y="230.19" width="43.72" height="33.29" style="fill:#FFC100;opacity:0.5"></rect><path d="M120.4,230.19v33.29h43.72V230.19Zm41.73,1-19.87,15-19.86-15Zm-40.73.5,20,15.14L121.4,262Zm1,30.79,19.86-15,19.87,15Zm20.69-15.65,20-15.14V262Z" style="fill:#fff;opacity:0.30000000000000004;isolation:isolate"></path><rect x="170.91" y="230.68" width="77.5" height="4.34" style="fill:#FFC100;opacity:0.75"></rect><rect x="170.91" y="238.31" width="77.5" height="4.34" style="fill:#FFC100;opacity:0.75"></rect><rect x="170.91" y="246.37" width="35.62" height="4.34" style="fill:#FFC100;opacity:0.75"></rect><path d="M172.49,231.84H171.4v-.4H174v.4h-1.1v2.79h-.45Z" style="fill:#fff"></path><rect x="114.17" y="273.8" width="139.78" height="46.06" rx="2.6" style="fill:#fff"></rect><rect x="120.4" y="280.19" width="43.72" height="33.29" style="fill:#FFC100;opacity:0.5"></rect><path d="M120.4,280.19v33.29h43.72V280.19Zm41.73,1-19.87,15-19.86-15Zm-40.73.5,20,15.14L121.4,312Zm1,30.79,19.86-15,19.87,15Zm20.69-15.65,20-15.14V312Z" style="fill:#fff;opacity:0.30000000000000004;isolation:isolate"></path><rect x="170.91" y="280.68" width="77.5" height="4.34" style="fill:#FFC100;opacity:0.75"></rect><rect x="170.91" y="288.31" width="77.5" height="4.34" style="fill:#FFC100;opacity:0.75"></rect><rect x="170.91" y="296.37" width="35.62" height="4.34" style="fill:#FFC100;opacity:0.75"></rect><path d="M172.49,281.84H171.4v-.4H174v.4h-1.1v2.79h-.45Z" style="fill:#fff"></path><rect x="259.09" y="223.85" width="5.4" height="96.02" style="fill:#fff"></rect><rect x="259.09" y="229.07" width="5.4" height="15.04" style="fill:#FFC100;opacity:0.75"></rect><path d="M274.06,94.25v15.49h-168V93.87A3.73,3.73,0,0,1,109.65,90h37.78a2.94,2.94,0,0,1,2.69,1.88l1.73,4.26A2.94,2.94,0,0,0,154.54,98h71.13a2.91,2.91,0,0,0,2.69-1.83l1.73-4.28A3,3,0,0,1,232.78,90H270A4.22,4.22,0,0,1,274.06,94.25Z" style="fill:#FFC100"></path><path d="M106.06,394h168v16.38a4.62,4.62,0,0,1-4.69,4.62H110.25a4.14,4.14,0,0,1-4.19-4.24Z" style="fill:#FFC100"></path></g><g id="freepik--Labels--inject-105"><rect x="67.1" y="91.63" width="30.46" height="14.83" style="fill:#FFC100"></rect><line x1="72.15" y1="95.67" x2="92.52" y2="95.67" style="fill:none;stroke:#fff;stroke-linecap:round;stroke-linejoin:round"></line><line x1="72.15" y1="99.04" x2="92.52" y2="99.04" style="fill:none;stroke:#fff;stroke-linecap:round;stroke-linejoin:round"></line><line x1="72.15" y1="102.41" x2="82.34" y2="102.41" style="fill:none;stroke:#fff;stroke-linecap:round;stroke-linejoin:round"></line><line x1="88.42" y1="105.85" x2="118.48" y2="131.92" style="fill:none;stroke:#FFC100;stroke-miterlimit:10"></line><circle cx="118.48" cy="131.92" r="1.82" style="fill:#FFC100"></circle><rect x="64.1" y="275.94" width="30.46" height="14.83" style="fill:#FFC100"></rect><line x1="69.15" y1="279.98" x2="89.52" y2="279.98" style="fill:none;stroke:#fff;stroke-linecap:round;stroke-linejoin:round"></line><line x1="69.15" y1="283.35" x2="89.52" y2="283.35" style="fill:none;stroke:#fff;stroke-linecap:round;stroke-linejoin:round"></line><line x1="69.15" y1="286.72" x2="79.34" y2="286.72" style="fill:none;stroke:#fff;stroke-linecap:round;stroke-linejoin:round"></line><circle cx="115.48" cy="283.35" r="1.82" style="fill:#FFC100"></circle><line x1="115.48" y1="283.35" x2="92.74" y2="283.35" style="fill:none;stroke:#FFC100;stroke-miterlimit:10"></line><rect x="279.27" y="161.83" width="30.46" height="14.83" style="fill:#FFC100"></rect><line x1="284.31" y1="165.87" x2="304.69" y2="165.87" style="fill:none;stroke:#fff;stroke-linecap:round;stroke-linejoin:round"></line><line x1="284.31" y1="169.24" x2="304.69" y2="169.24" style="fill:none;stroke:#fff;stroke-linecap:round;stroke-linejoin:round"></line><line x1="284.31" y1="172.61" x2="294.5" y2="172.61" style="fill:none;stroke:#fff;stroke-linecap:round;stroke-linejoin:round"></line><circle cx="244.93" cy="206.12" r="1.82" style="fill:#FFC100"></circle><line x1="244.93" y1="206.12" x2="288.86" y2="173.24" style="fill:none;stroke:#FFC100;stroke-miterlimit:10"></line><rect x="282.25" y="358.75" width="30.46" height="14.83" style="fill:#FFC100"></rect><line x1="287.3" y1="362.8" x2="307.67" y2="362.8" style="fill:none;stroke:#fff;stroke-linecap:round;stroke-linejoin:round"></line><line x1="287.3" y1="366.17" x2="307.67" y2="366.17" style="fill:none;stroke:#fff;stroke-linecap:round;stroke-linejoin:round"></line><line x1="287.3" y1="369.54" x2="297.49" y2="369.54" style="fill:none;stroke:#fff;stroke-linecap:round;stroke-linejoin:round"></line><path d="M249.73,366.17a1.82,1.82,0,1,1-1.81-1.82A1.81,1.81,0,0,1,249.73,366.17Z" style="fill:#FFC100"></path><line x1="247.92" y1="366.17" x2="284.5" y2="366.17" style="fill:none;stroke:#FFC100;stroke-miterlimit:10"></line></g><g id="freepik--Character--inject-105"><path d="M343.39,202.53c-3.37.16-17.48,19.11-17.48,19.11l-5.24-6.82s-8.08,15.7-4.09,23.18,25.06-13,25.06-13Z" style="fill:#FFC100"></path><path d="M343.39,202.53,342,217.65l-.36,7.39s-3.46,3.36-7.84,6.85C327.37,237,319,242.44,316.58,238c-4-7.47,4.09-23.17,4.09-23.17l5.24,6.81,0-.06C326.74,220.44,340.13,202.68,343.39,202.53Z" style="opacity:0.2;isolation:isolate"></path><path d="M342,217.65l-.36,7.39s-3.46,3.36-7.84,6.85c-.42-8.88,7.84-21.8,7.84-21.8Z" style="opacity:0.2;isolation:isolate"></path><path d="M325.91,221.64l.75,1.44-2.2,8.55s6.06-5.51,2.2-10.92Z" style="opacity:0.2;isolation:isolate"></path><path d="M342.78,249.92l28.42,2.19s.39-17,2.65-25.81c.74-2.86,1.66-6.07,2.83-9.8.5-1.59,1-3.25,1.64-5s1.13-3.43,1.78-5.28a83.56,83.56,0,0,0-11.88-2.87A90.9,90.9,0,0,0,355.36,202c-5.57,0-12,.58-12,.58s-.91.23-1.48,6.12C341.38,214.2,341.63,229.75,342.78,249.92Z" style="fill:#FFC100"></path><path d="M342.78,249.92l28.42,2.19s0-.35,0-1c.12-3.72.68-17.26,2.62-24.83.52-2,1.14-4.27,1.89-6.73.29-1,.6-2,.94-3.07.5-1.58,1-3.25,1.63-5s1.14-3.43,1.79-5.28c-1.55-.5-3.11-.94-4.68-1.35-2.37-.61-4.78-1.11-7.2-1.52A91.06,91.06,0,0,0,355.36,202c-3.59,0-7.52.22-9.87.41-1.3.1-2.1.18-2.1.18s-.91.22-1.49,6.11C341.38,214.21,341.63,229.75,342.78,249.92Z" style="opacity:0.2;isolation:isolate"></path><path d="M357.72,208.28c7.06-.9,9.19-3.92,9.19-3.92-2.89-2.72-2.37-6.74-1.63-9.24a14.23,14.23,0,0,1,.87-2.31l-8.5,1.59A24.83,24.83,0,0,1,358,198a10.65,10.65,0,0,1-.24,2.63c-.58,2.54-2,2.57-2,2.57C354.22,206,357.72,208.28,357.72,208.28Z" style="fill:#ebb376"></path><path d="M358,198a10.65,10.65,0,0,1-.24,2.63c3.38-.45,5.93-3.15,7.54-5.49a14.23,14.23,0,0,1,.87-2.31l-8.5,1.59A24.83,24.83,0,0,1,358,198Z" style="opacity:0.2;isolation:isolate"></path><path d="M377.64,159.65h2.46c-.55-2.83-4.21-6.65-8.2-5.64a14.45,14.45,0,0,1,2.31-1.83,8.82,8.82,0,0,0-8.06,2.36c-3.44,3.54-5.24,10.88-2.23,13.75.39.37.86.26,1.37-.17,2.59,3.49,6.22.27,6.85.17s.15,1.82.15,1.82c2.08,0,2.58-2.64,2.58-2.64l2,2.64a5.78,5.78,0,0,0,1.45-5.25l1.8,1.16C380.45,161.27,377.64,159.65,377.64,159.65Z" style="fill:#263238"></path><path d="M347.86,183.11s-4.18-11,6.67-16.43,17.17,2.27,17.57,9.71-2,13.85-5.54,15.13S347.86,183.11,347.86,183.11Z" style="fill:#263238"></path><path d="M356.5,171.82c-7.32,1.06-9.11,5.32-8.56,12.94.69,9.52,3.75,15.92,12.61,12.58C372.59,192.81,368.65,170.07,356.5,171.82Z" style="fill:#ebb376"></path><path d="M352.61,183.67a15.38,15.38,0,0,1-1.69,3.34,2,2,0,0,0,2.05.55Z" style="fill:#d58745"></path><path d="M357,182.42c.07.6.46,1.05.86,1s.67-.58.59-1.19-.45-1.05-.86-1S356.93,181.82,357,182.42Z" style="fill:#263238"></path><path d="M357.78,181.25l-1.38-.36S357.19,181.92,357.78,181.25Z" style="fill:#263238"></path><path d="M349.49,183.2c.08.6.46,1.05.86,1s.67-.57.6-1.18-.46-1.05-.86-1S349.42,182.6,349.49,183.2Z" style="fill:#263238"></path><path d="M350.26,182l-1.37-.36S349.67,182.7,350.26,182Z" style="fill:#263238"></path><path d="M356.35,177.36a3.86,3.86,0,0,1,3.34.64" style="fill:none;stroke:#263238;stroke-linecap:round;stroke-linejoin:round;stroke-width:0.707962px"></path><path d="M351,177.81a3.45,3.45,0,0,0-2.83,1" style="fill:none;stroke:#263238;stroke-linecap:round;stroke-linejoin:round;stroke-width:0.707962px"></path><path d="M366.28,183s-4.29-5.52-4.44-10.23c0,0-15.37-3.83-13.95,11,0,0-3.31-12.87,9.23-15s15.15,16.31,9.44,22.74C366.56,191.52,368.94,186.46,366.28,183Z" style="fill:#263238"></path><path d="M365.31,184.72a3.24,3.24,0,0,1,3-3.43c2.3-.08,4.06,4.42-1.42,6.35C366.13,187.92,365.56,187.19,365.31,184.72Z" style="fill:#ebb376"></path><path d="M354.53,191.38s3.16.26,4-2.66" style="fill:none;stroke:#263238;stroke-linecap:round;stroke-linejoin:round;stroke-width:0.707962px"></path><path d="M338.25,215.05a.73.73,0,0,1-.74.82H329.4a1,1,0,0,1-.92-.82l-1.81-16a.81.81,0,0,1,.73-.93h8.12a1.05,1.05,0,0,1,.91.93Z" style="fill:#263238"></path><path d="M335.53,198.92l1.84,16.18a.62.62,0,0,1-.64.77h-6.88c-.46,0-1.31-.26-1.36-.72l-1.84-16.23c0-.45.74-.82,1.2-.82h6.88A.83.83,0,0,1,335.53,198.92Z" style="fill:#fff;opacity:0.5"></path><path d="M321.24,216.38l4.24-7.18a23.62,23.62,0,0,1,.35-4.66c.37-.89,4.52-2.89,5.33-2.59s1.11,7.7.37,8.7-3.33,2.11-3.33,2.11l.18,1.4-2.47,7.48Z" style="fill:#ebb376"></path><polygon points="319.54 215.57 320.95 214.16 327.61 221.64 326.66 224.6 319.54 215.57" style="fill:#FFC100"></polygon><path d="M353.29,227.51s7.83,17.84,17.94,23.62c.12-3.72.68-17.26,2.62-24.83.52-2,1.14-4.27,1.89-6.73l-3.08-3.7s-2.14,6.61-1.19,12.34L359.68,221Z" style="opacity:0.2;isolation:isolate"></path><path d="M360.87,223.41l-9.62-7.54a33.53,33.53,0,0,0-2-4.76c-.58-.7-9-3.81-9.72-3.89s0,6.9,1.06,8.09,7.84,3.54,7.84,3.54l10.07,9.48Z" style="fill:#ebb376"></path><path d="M380.1,206.18c5.65,2.83,8.16,34.72-1.65,40.23S354,227,354,227l5.7-6s11.93,10,13.38,9.08-.2-10.69-.2-10.69-1.68-3,1.85-7.6S380.1,206.18,380.1,206.18Z" style="fill:#FFC100"></path><path d="M380.1,206.18c5.65,2.83,8.16,34.72-1.65,40.23S354,227,354,227l5.7-6s11.93,10,13.38,9.08-.2-10.69-.2-10.69-1.68-3,1.85-7.6S380.1,206.18,380.1,206.18Z" style="opacity:0.2;isolation:isolate"></path><polygon points="353.88 229.25 352.18 228.22 358.57 218.85 360.92 220.16 353.88 229.25" style="fill:#FFC100"></polygon><path d="M345.49,202.36a5.33,5.33,0,0,0,1.17,3.18,8,8,0,0,0,1.89,1.7c1.83,1.21,4.68,2.27,9.1,2.85a27.59,27.59,0,0,0,7.3.07,19.29,19.29,0,0,0,3.13-.69,15.51,15.51,0,0,0,7.34-4.64c-1.56-.4-3.14-.76-4.73-1.06q-.62-.14-1.23-.24l-1.24-.22A91.06,91.06,0,0,0,355.36,202c-1.56,0-3.16,0-4.69.09-.67,0-1.33.06-1.95.11C347.49,202.21,346.38,202.29,345.49,202.36Z" style="fill:#ebb376"></path><path d="M365,210.16a19.29,19.29,0,0,0,3.13-.69,10.41,10.41,0,0,1,2.61-5.7q-.62-.14-1.23-.24C367,205.24,365.6,208.37,365,210.16Z" style="fill:#263238"></path><path d="M346.66,205.54a8,8,0,0,0,1.89,1.7,8.15,8.15,0,0,1,2.12-5.2c-.67,0-1.33.06-1.95.11A10.75,10.75,0,0,0,346.66,205.54Z" style="fill:#263238"></path><path d="M340.22,143.5h10.29a2.81,2.81,0,0,1,2.81,2.81v8a2.81,2.81,0,0,1-2.81,2.81h-3.78l-1.37,3.31L344,157.16h-3.78a2.81,2.81,0,0,1-2.81-2.81v-8A2.81,2.81,0,0,1,340.22,143.5Z" style="fill:#FFC100"></path><path d="M349.21,150.46l-1.95,0a15.36,15.36,0,0,1-.46-4.39,3.44,3.44,0,0,0-1,0c-.32.1-.43,3.46-.43,3.46a29.71,29.71,0,0,0-3.7-.07c-.12.09-.14.61-.15,1a.44.44,0,0,0,.36.44l.12,0,.18,3.34a.5.5,0,0,0,.49.47l3.27,0a1.63,1.63,0,0,0,.91-.28l.36-.24,2,.14Z" style="fill:#FFC100"></path><path d="M349.21,150.46l-1.95,0a15.36,15.36,0,0,1-.46-4.39,3.44,3.44,0,0,0-1,0c-.32.1-.43,3.46-.43,3.46a29.71,29.71,0,0,0-3.7-.07c-.12.09-.14.61-.15,1a.44.44,0,0,0,.36.44l.12,0,.18,3.34a.5.5,0,0,0,.49.47l3.27,0a1.63,1.63,0,0,0,.91-.28l.36-.24,2,.14Z" style="fill:#fff;opacity:0.7000000000000001;isolation:isolate"></path><polygon points="316.08 402.76 322.07 403.8 324.52 395.78 326.76 388.42 319.86 386.05 317.86 394.89 316.08 402.76" style="fill:#e4897b"></polygon><path d="M323.42,403.64c.1-.65-8.1-1.55-8.1-1.55s-5.89,4.12-10.93,4.4S301.53,410.1,307,411l13.4,2.32C324.2,414,322.37,410.39,323.42,403.64Z" style="fill:#263238"></path><path d="M310,403.08a.78.78,0,0,1,0-.89.87.87,0,0,1,.53-.46,3.34,3.34,0,0,1,1.85.12c-.59-.46-1.1-1-1-1.41,0-.27.25-.47.65-.57A1.28,1.28,0,0,1,313,400c1,.64,1.37,2.61,1.38,2.7a.17.17,0,0,1,0,.1h0l0,.05h0s0,0-.05.06h0a.11.11,0,0,1-.07,0,12.71,12.71,0,0,1-2.94.48A1.8,1.8,0,0,1,310,403.08Zm.64-.95a.45.45,0,0,0-.28.24c-.14.3-.05.39,0,.43.33.37,1.89.19,3.18-.1A5.41,5.41,0,0,0,310.64,402.13Zm1.42-1.85c-.12,0-.32.1-.33.21-.05.37,1,1.19,2.12,1.84a3.55,3.55,0,0,0-1.08-1.95.88.88,0,0,0-.46-.14A1.18,1.18,0,0,0,312.06,400.28Z" style="fill:#FFC100"></path><polygon points="317.82 395.08 324.5 395.94 326.75 388.5 319.85 386.09 317.82 395.08" style="opacity:0.2;isolation:isolate"></polygon><polygon points="356.06 405.28 362.13 405.28 363.13 396.96 364.04 389.33 356.82 388.18 356.41 397.23 356.06 405.28" style="fill:#e4897b"></polygon><path d="M363.44,404.89c0-.65-8.25-.14-8.25-.14s-5.07,5.06-10,6.2-2.17,4,3.33,4h13.6C366,415,363.6,411.72,363.44,404.89Z" style="fill:#263238"></path><path d="M350.13,406.63a.75.75,0,0,1-.2-.86.86.86,0,0,1,.44-.55,3.34,3.34,0,0,1,1.84-.2c-.67-.35-1.25-.78-1.28-1.2s.17-.51.54-.68a1.25,1.25,0,0,1,1.07,0c1.12.45,1.81,2.34,1.84,2.42a.25.25,0,0,1,0,.17l0,0h0a.2.2,0,0,1-.07.06,10.65,10.65,0,0,1-3.42,1A1.12,1.12,0,0,1,350.13,406.63Zm.45-1a.45.45,0,0,0-.23.28c-.08.32,0,.4,0,.43.39.31,1.9-.13,3.11-.64A5.44,5.44,0,0,0,350.58,405.59Zm1.08-2.07c-.11.06-.3.16-.29.27,0,.37,1.2,1,2.42,1.45a3.62,3.62,0,0,0-1.42-1.74,1,1,0,0,0-.33-.07A.88.88,0,0,0,351.66,403.52Z" style="fill:#FFC100"></path><polygon points="356.41 397.42 363.13 397.13 364.04 389.41 356.82 388.22 356.41 397.42" style="opacity:0.2;isolation:isolate"></polygon><path d="M317.26,390.41l9.84,1.7c9.94-24.3,17-44.59,22-61.43,2.69-9.08,4.78-17.16,6.39-24.33L355,332.81v60.11h10C389.34,279,372.11,253,372.11,253L343,248.11a127.51,127.51,0,0,0-2.43,16l-1.32,9.45L327.9,331.22Z" style="fill:#FFC100"></path><path d="M317.26,390.41l9.84,1.7c9.94-24.3,17-44.59,22-61.43,2.69-9.08,4.78-17.16,6.39-24.33L355,332.81v60.11h10C389.34,279,372.11,253,372.11,253L343,248.11a127.51,127.51,0,0,0-2.43,16l-1.32,9.45L327.9,331.22Z" style="fill:#fff;opacity:0.6000000000000001;isolation:isolate"></path><polygon points="328.65 390.92 316.44 386.94 316.6 392.04 326.7 395.21 328.65 390.92" style="fill:#FFC100"></polygon><polygon points="366.33 391.47 353.61 389.64 354.67 394.64 365.17 396.03 366.33 391.47" style="fill:#FFC100"></polygon><polygon points="372.11 248.73 372.11 252.99 342.45 250.76 342.45 245.71 372.11 248.73" style="fill:#263238"></polygon><polygon points="348.87 251.59 355.35 252.16 355.79 247.32 349.31 246.75 348.87 251.59" style="fill:#fff"></polygon><polygon points="361.77 254.29 363.24 254.37 363.62 247.01 362.15 246.93 361.77 254.29" style="fill:#FFC100"></polygon><polygon points="361.77 254.29 363.24 254.37 363.62 247.01 362.15 246.93 361.77 254.29" style="fill:#fff;opacity:0.6000000000000001;isolation:isolate"></polygon><polygon points="343.65 252.34 345.12 252.41 345.5 245.05 344.03 244.98 343.65 252.34" style="fill:#FFC100"></polygon><polygon points="343.65 252.34 345.12 252.41 345.5 245.05 344.03 244.98 343.65 252.34" style="fill:#fff;opacity:0.6000000000000001;isolation:isolate"></polygon><path d="M349.09,330.68c2.69-9.08,4.78-17.16,6.39-24.33A219.52,219.52,0,0,0,353.6,281S349.34,313.7,349.09,330.68Z" style="opacity:0.2;isolation:isolate"></path></g></svg>